<svg id="Layer_1" enable-background="new 0 0 512 512" viewBox="0 0 512 512" xmlns="http://www.w3.org/2000/svg"><g id="_x30_2_photo_book_00000059277621161868616070000004821866487422810001_"><g><path d="m512 30.12v451.76h-30.12v30.12h-421.64v-30.12h-30.12v-30.12h-30.12v-391.52h30.12v-30.12h30.12v-30.12h421.64v30.12z"/></g><g><g><g><path d="m481.88 60.24v331.29l-13.633 16.071h-396.132l-11.875-16.071-15.06-21.271v-295.096l15.06-14.923 17.257-15.06h389.912z" fill="#ff6379"/></g></g><g><g><path d="m481.88 391.53v30.12l-16.232 15.055 16.232 15.055v30.12h-421.64v-30.12h-30.12v-30.11l30.12-30.12z" fill="#ffe8cb"/></g></g></g><g><g><g><path d="m421.65 90.35v240.94h-30.12v30.12h-271.06v-30.12h-30.12v-240.94h30.12v-30.11l15.931-15.06h239.198l15.931 15.06v30.11z" fill="#c73c50"/></g><g><path d="m120.47 90.35h271.06v240.94h-271.06z" fill="#ffdce1"/></g><g><g><path d="m361.41 120.47v30.12l-14.28 29.719 14.28 30.511v90.36h-90.35l-15.06-15.677-15.06 15.677h-90.35v-90.36l14.682-30.11-14.682-30.12v-30.12h30.12l30.115 15.205 30.115-15.205h30.12l30.115 17.394 30.115-17.394z" fill="#ffa6b2"/></g></g></g><g><path d="m60.24 421.65h421.64v30.11h-421.64z" fill="#af8546"/></g><g fill="#ffa6b2"><path d="m60.24 30.12h421.64v30.12h-421.64z"/><path d="m30.12 60.24h30.12v361.41h-30.12z"/></g><g><g><path d="m361.41 150.59v60.23h-30.12v30.12h-30.11v30.12h-30.12v30.12h-30.12v-30.12h-30.12v-30.12h-30.11v-30.12h-30.12v-60.23h30.12v-30.12h60.23v30.12h30.12v-30.12h60.23v30.12z" fill="#952a3a"/></g><path d="m331.29 180.71v30.11h-30.11v30.12h-30.12v30.12h-30.12v-30.12h-30.12v-30.12h-30.11v-30.11l30.115-15.06 30.115 15.06 15.06 15.055 15.06-15.055 30.115-15.06z" fill="#ff6379"/><g fill="#ffa6b2"><path d="m271.06 150.59h60.23v30.12h-60.23z"/><path d="m180.71 150.59h60.23v30.12h-60.23z"/><path d="m240.94 180.71h30.12v30.11h-30.12z"/></g></g></g></g><g/><g/><g/><g/><g/><g/><g/><g/><g/><g/><g/><g/><g/><g/><g/></svg>